<?xml version="1.0" encoding="UTF-8" standalone="no"?>
<!--From https://cadence.moe/blog/2024-10-05-created-by-a-human-badges -->
<svg
   width="88"
   height="31"
   viewBox="0 0 88 31"
   fill="none"
   version="1.1"
   id="svg10"
   sodipodi:docname="created by a human.svg"
   inkscape:version="1.3.2 (091e20ef0f, 2023-11-25)"
   inkscape:export-filename="created by a human with a heart.png"
   inkscape:export-xdpi="384"
   inkscape:export-ydpi="384"
   xmlns:inkscape="http://www.inkscape.org/namespaces/inkscape"
   xmlns:sodipodi="http://sodipodi.sourceforge.net/DTD/sodipodi-0.dtd"
   xmlns:xlink="http://www.w3.org/1999/xlink"
   xmlns="http://www.w3.org/2000/svg"
   xmlns:svg="http://www.w3.org/2000/svg">
  <defs
     id="defs10">
    <linearGradient
       id="linearGradient1"
       inkscape:collect="always">
      <stop
         style="stop-color:#000000;stop-opacity:1;"
         offset="0.10350592"
         id="stop12" />
      <stop
         style="stop-color:#ef0060;stop-opacity:1;"
         offset="0.10350592"
         id="stop1" />
      <stop
         style="stop-color:#d92626;stop-opacity:1;"
         offset="0.34323436"
         id="stop3" />
      <stop
         style="stop-color:#ef8b3f;stop-opacity:1;"
         offset="0.34323436"
         id="stop4" />
      <stop
         style="stop-color:#eacc00;stop-opacity:1;"
         offset="0.56146866"
         id="stop5" />
      <stop
         style="stop-color:#129900;stop-opacity:1;"
         offset="0.56146866"
         id="stop8" />
      <stop
         style="stop-color:#00c764;stop-opacity:1;"
         offset="0.78905761"
         id="stop9" />
      <stop
         style="stop-color:#003fb9;stop-opacity:1;"
         offset="0.78905761"
         id="stop10" />
      <stop
         style="stop-color:#056ed3;stop-opacity:1;"
         offset="0.9903633"
         id="stop11" />
    </linearGradient>
    <linearGradient
       inkscape:collect="always"
       xlink:href="#linearGradient1"
       id="linearGradient2"
       x1="0"
       y1="16.613992"
       x2="37.888939"
       y2="16.613993"
       gradientUnits="userSpaceOnUse"
       gradientTransform="matrix(1,0,-0.36000974,0.93294855,4.2394999,0)" />
    <filter
       inkscape:collect="always"
       style="color-interpolation-filters:sRGB"
       id="filter23"
       x="-0.10019781"
       y="-0.1088194"
       width="1.2003824"
       height="1.2176398">
      <feGaussianBlur
         inkscape:collect="always"
         stdDeviation="0.83884416"
         id="feGaussianBlur23" />
    </filter>
    <filter
       inkscape:collect="always"
       style="color-interpolation-filters:sRGB"
       id="filter27"
       x="-0.10959901"
       y="-0.12546164"
       width="1.219179"
       height="1.2509856">
      <feGaussianBlur
         inkscape:collect="always"
         stdDeviation="0.79996566"
         id="feGaussianBlur27" />
    </filter>
  </defs>
  <sodipodi:namedview
     id="namedview10"
     pagecolor="#1e1e1e"
     bordercolor="#ffffff"
     borderopacity="1"
     inkscape:showpageshadow="0"
     inkscape:pageopacity="0"
     inkscape:pagecheckerboard="false"
     inkscape:deskcolor="#d1d1d1"
     inkscape:zoom="5.6568542"
     inkscape:cx="48.613591"
     inkscape:cy="43.398679"
     inkscape:window-width="1876"
     inkscape:window-height="1012"
     inkscape:window-x="0"
     inkscape:window-y="0"
     inkscape:window-maximized="1"
     inkscape:current-layer="svg10"
     showgrid="false">
    <inkscape:grid
       id="grid2"
       units="px"
       originx="0"
       originy="0"
       spacingx="1"
       spacingy="1"
       empcolor="#0099e5"
       empopacity="0.30196078"
       color="#0099e5"
       opacity="0.14901961"
       empspacing="5"
       dotted="false"
       gridanglex="30"
       gridanglez="30"
       visible="false" />
  </sodipodi:namedview>
  <circle
     style="fill:#000000;fill-opacity:1;stroke:none;stroke-width:1.89;stroke-linecap:round;stroke-linejoin:round;stroke-dasharray:none;stroke-opacity:0.40499;paint-order:stroke fill markers"
     id="path24-6"
     cx="61.297318"
     cy="41.763493"
     r="2.4306796" />
  <rect
     style="opacity:1;fill:#000000;fill-opacity:1;stroke:none;stroke-width:1.89;stroke-linecap:round;stroke-linejoin:round;stroke-dasharray:none;stroke-opacity:0.40499;paint-order:stroke fill markers"
     id="rect23"
     width="88"
     height="31"
     x="0"
     y="0" />
  <path
     id="rect14"
     style="opacity:1;fill:url(#linearGradient2);stroke-width:1.89;stroke-linecap:round;stroke-linejoin:round;paint-order:markers fill stroke;stroke-dasharray:none"
     d="M 0,0 H 41.952657 L 30.115259,31 H 0 Z"
     sodipodi:nodetypes="ccccc" />
  <path
     d="m 42.54666,12.114295 c -1.946848,0 -3.143104,1.278352 -3.143104,3.10792 0,1.688832 1.372176,2.943728 2.908544,2.943728 0.691007,0 1.39835,-1.001577 1.704725,-1.14834 l 0.03102,0.397748 c 0.03518,0.387024 0.2932,0.656768 0.680224,0.656768 0.422208,0 0.691952,-0.304928 0.691952,-0.727136 v -2.544976 c 0,-1.735744 -1.395632,-2.685712 -2.87336,-2.685712 z m -0.07037,4.761568 c -0.985152,0 -1.688832,-0.656768 -1.688832,-1.735744 0,-0.903056 0.504304,-1.747472 1.735744,-1.747472 1.020336,0 1.52464,0.5864 1.52464,1.52464 v 0.23456 c 0,1.149344 -0.64504,1.724016 -1.571552,1.724016 z"
     id="text11"
     style="font-weight:600;font-size:11.728px;line-height:128%;font-family:Torus;-inkscape-font-specification:'Torus Semi-Bold';letter-spacing:0px;word-spacing:0px;text-orientation:upright;fill:#ffffff;stroke-width:0.75556;stroke-linecap:round;stroke-linejoin:round;paint-order:markers fill stroke"
     aria-label="a"
     sodipodi:nodetypes="sssccssssssssss" />
  <text
     xml:space="preserve"
     style="font-style:normal;font-variant:normal;font-weight:600;font-stretch:normal;font-size:8.96228px;line-height:128%;font-family:Torus;-inkscape-font-specification:'Torus Semi-Bold';letter-spacing:-0.04px;word-spacing:0px;text-orientation:upright;opacity:1;fill:#ffffff;fill-opacity:1;stroke:none;stroke-width:0.577383;stroke-linecap:round;stroke-linejoin:round;paint-order:markers fill stroke"
     x="36.163494"
     y="27.432892"
     id="text12"><tspan
       sodipodi:role="line"
       id="tspan12"
       x="36.163494"
       y="27.432892"
       style="font-style:normal;font-variant:normal;font-weight:600;font-stretch:normal;font-family:Torus;-inkscape-font-specification:'Torus Semi-Bold';letter-spacing:-0.04px;fill:#ffffff;fill-opacity:1;stroke-width:0.577383">with a</tspan></text>
  <text
     xml:space="preserve"
     style="font-style:normal;font-variant:normal;font-weight:600;font-stretch:normal;font-size:8.49689px;line-height:128%;font-family:Torus;-inkscape-font-specification:'Torus Semi-Bold';letter-spacing:-0.1px;word-spacing:0px;text-orientation:upright;opacity:1;fill:#ffffff;fill-opacity:1;stroke:none;stroke-width:0.547401;stroke-linecap:round;stroke-linejoin:round;paint-order:markers fill stroke"
     x="42.964634"
     y="7.8326893"
     id="text14"><tspan
       sodipodi:role="line"
       id="tspan14"
       x="42.964634"
       y="7.8326893"
       style="font-style:normal;font-variant:normal;font-weight:600;font-stretch:normal;font-family:Torus;-inkscape-font-specification:'Torus Semi-Bold';letter-spacing:-0.1px;fill:#ffffff;fill-opacity:1;stroke-width:0.547401">created by</tspan></text>
  <path
     d="m 52.612899,12.353132 c -0.70368,0 -1.278352,0.258016 -1.606736,0.668496 h -0.07037 v -2.017216 c 0,-0.551216 -0.387024,-0.961696 -0.926512,-0.961696 -0.539488,0 -0.914784,0.41048 -0.914784,0.961696 v 6.380032 c 0,0.551216 0.375296,0.949968 0.914784,0.949968 0.539488,0 0.926512,-0.398752 0.926512,-0.949968 v -2.544976 c 0,-0.316656 0.281472,-0.844416 1.125888,-0.844416 0.5864,0 1.008608,0.23456 1.008608,1.11416 v 2.275232 c 0,0.551216 0.375296,0.949968 0.914784,0.949968 0.551216,0 0.926512,-0.398752 0.926512,-0.949968 v -2.568432 c 0,-1.770928 -1.102432,-2.46288 -2.298688,-2.46288 z m 8.183045,0.09382 c -0.539488,0 -0.914784,0.398752 -0.914784,0.949968 v 2.603616 c 0,0.340112 -0.340112,0.774048 -1.11416,0.774048 -0.691952,0.01173 -1.102432,-0.316656 -1.102432,-1.301808 V 13.39692 c 0,-0.551216 -0.387024,-0.949968 -0.926512,-0.949968 -0.539488,0 -0.914784,0.398752 -0.914784,0.949968 v 2.298688 c 0,1.958576 1.137616,2.732624 2.474608,2.732624 0.867872,0 1.454272,-0.422208 1.64192,-0.738864 h 0.07037 v 0.01173 c 0.05864,0.316656 0.340112,0.633312 0.809232,0.633312 0.516032,0 0.903056,-0.375296 0.903056,-0.926512 v -4.010976 c 0,-0.551216 -0.387024,-0.949968 -0.926512,-0.949968 z m 8.171324,-0.09382 c -0.738864,0 -1.336992,0.269744 -1.70056,0.656768 -0.340112,-0.422208 -0.8796,-0.656768 -1.430816,-0.656768 -0.633312,0 -1.207984,0.363568 -1.430816,0.691952 h -0.07037 v -0.01173 c -0.07037,-0.340112 -0.363568,-0.598128 -0.797504,-0.598128 -0.562944,0 -0.914784,0.433936 -0.914784,0.985152 v 3.964064 c 0,0.551216 0.375296,0.949968 0.914784,0.949968 0.539488,0 0.926512,-0.398752 0.926512,-0.949968 v -2.709168 c 0,-0.445664 0.363568,-0.691952 0.82096,-0.691952 0.41048,0 0.70368,0.199376 0.70368,0.70368 v 2.69744 c 0,0.551216 0.375296,0.949968 0.914784,0.949968 0.539488,0 0.926512,-0.398752 0.926512,-0.949968 v -2.767808 c 0,-0.433936 0.35184,-0.633312 0.82096,-0.633312 0.433936,0 0.70368,0.199376 0.70368,0.70368 v 2.69744 c 0,0.551216 0.375296,0.949968 0.914784,0.949968 0.539488,0 0.926512,-0.398752 0.926512,-0.949968 V 14.65182 c 0,-1.395632 -0.93824,-2.298688 -2.22832,-2.298688 z m 6.271396,0 c -1.899936,0 -3.319024,1.184528 -3.319024,3.084464 0,1.806112 1.442544,2.99064 2.967184,2.99064 0.891328,0 1.036238,-0.730765 1.559824,-0.668496 h 0.05864 c 0.238383,-0.02316 0.433936,0.574672 0.844416,0.574672 0.539488,0 0.903056,-0.398752 0.903056,-0.949968 v -2.22832 c 0,-1.688832 -1.40736,-2.802992 -3.014096,-2.802992 z m -0.105552,4.433184 c -0.809232,0 -1.360448,-0.539488 -1.360448,-1.372176 0,-0.750592 0.445664,-1.430816 1.383904,-1.430816 0.809232,0 1.278352,0.504304 1.278352,1.266624 v 0.164192 c 0,0.93824 -0.598128,1.372176 -1.301808,1.372176 z m 7.491107,-4.433184 c -0.76232,0 -1.336992,0.328384 -1.677104,0.715408 h -0.07037 v -0.01173 c -0.09382,-0.41048 -0.433936,-0.609856 -0.785776,-0.609856 -0.551216,0 -0.926512,0.41048 -0.926512,0.961696 v 3.964064 c 0,0.551216 0.363568,0.961696 0.914784,0.961696 0.551216,0 0.926512,-0.41048 0.926512,-0.961696 v -2.533248 c 0,-0.363568 0.328384,-0.844416 1.090704,-0.844416 0.598128,0 0.985152,0.246288 0.985152,1.11416 v 2.263504 c 0,0.551216 0.375296,0.961696 0.926512,0.961696 0.551216,0 0.914784,-0.41048 0.914784,-0.961696 v -2.58016 c 0,-1.735744 -1.102432,-2.439424 -2.298688,-2.439424 z"
     id="text2"
     style="font-weight:bold;font-size:11.728px;line-height:128%;font-family:Torus;-inkscape-font-specification:'Torus Bold';letter-spacing:-0.05px;word-spacing:0px;text-orientation:upright;fill:#f9f06b;stroke-width:0.75556;stroke-linecap:round;stroke-linejoin:round;paint-order:markers fill stroke"
     aria-label="human"
     sodipodi:nodetypes="sccsssssssssssssssssscsssssscccsssssscscccsssssssssssssssssssssssccssssssssssscccssssssssssssss" />
  <g
     id="g24">
    <text
       xml:space="preserve"
       style="font-style:normal;font-variant:normal;font-weight:600;font-stretch:normal;font-size:8.78279px;line-height:128%;font-family:Torus;-inkscape-font-specification:'Torus Semi-Bold';letter-spacing:-0.0391989px;word-spacing:0px;text-orientation:upright;opacity:1;fill:#f68278;fill-opacity:1;stroke:none;stroke-width:0.56582;stroke-linecap:round;stroke-linejoin:round;paint-order:markers fill stroke"
       x="64.857132"
       y="26.884214"
       id="text3"
       transform="scale(0.97997299,1.0204363)"><tspan
         sodipodi:role="line"
         id="tspan3"
         x="64.857132"
         y="26.884214"
         style="font-style:normal;font-variant:normal;font-weight:600;font-stretch:normal;font-family:Torus;-inkscape-font-specification:'Torus Semi-Bold';letter-spacing:-0.0391989px;fill:#f68278;fill-opacity:1;stroke-width:0.56582">heart</tspan></text>
    <circle
       style="opacity:1;fill:#f68278;fill-opacity:1;stroke:none;stroke-width:1.89;stroke-linecap:round;stroke-linejoin:round;stroke-dasharray:none;stroke-opacity:0.40499;paint-order:stroke fill markers"
       id="path24"
       cx="61.297318"
       cy="41.763493"
       r="2.4306796" />
  </g>
  <g
     id="g25"
     transform="translate(27.930718,26.516504)">
    <text
       xml:space="preserve"
       style="font-style:normal;font-variant:normal;font-weight:600;font-stretch:normal;font-size:8.96228px;line-height:128%;font-family:Torus;-inkscape-font-specification:'Torus Semi-Bold';letter-spacing:-0.04px;word-spacing:0px;text-orientation:upright;opacity:1;fill:#e4a2bc;fill-opacity:1;stroke:none;stroke-width:0.577383;stroke-linecap:round;stroke-linejoin:round;paint-order:markers fill stroke"
       x="63.509083"
       y="27.449924"
       id="text13"><tspan
         sodipodi:role="line"
         id="tspan13"
         x="63.509083"
         y="27.449924"
         style="font-style:normal;font-variant:normal;font-weight:600;font-stretch:normal;font-family:Torus;-inkscape-font-specification:'Torus Semi-Bold';letter-spacing:-0.04px;fill:#e4a2bc;fill-opacity:1;stroke-width:0.577383">brain</tspan></text>
    <circle
       style="fill:#e4a2bc;fill-opacity:1;stroke:none;stroke-width:1.89;stroke-linecap:round;stroke-linejoin:round;stroke-dasharray:none;stroke-opacity:0.40499;paint-order:stroke fill markers"
       id="path24-3"
       cx="61.297318"
       cy="41.763493"
       r="2.4306796" />
  </g>
  <circle
     style="fill:#000000;fill-opacity:1;stroke:none;stroke-width:1.89;stroke-linecap:round;stroke-linejoin:round;stroke-dasharray:none;stroke-opacity:0.40499;paint-order:stroke fill markers"
     id="path24-6-7"
     cx="2.9306793"
     cy="41.180679"
     r="2.4306796" />
  <g
     id="g26"
     transform="translate(18.607705,70.893961)">
    <path
       id="path23"
       style="color:#000000;opacity:0.405745;mix-blend-mode:normal;fill:#000000;stroke:#000000;stroke-linecap:round;-inkscape-stroke:none;paint-order:stroke fill markers;filter:url(#filter23)"
       d="m 14.384766,5.9707031 c -0.419646,0.00871 -0.866383,0.058964 -1.339844,0.15625 C 11.123553,6.5217574 9.7724474,7.7598156 9.2558594,9.283203 9.119843,9.684307 9.04256,10.102505 9.0175781,10.527344 8.1656717,10.684534 7.2749396,11.186145 6.5,12.015625 c -0.9349405,1.000742 -1.6135736,2.54629 -1.390625,4.478516 0.226749,1.965165 1.0990901,3.342157 2.1875,4.167968 0.8922224,0.676959 1.892456,0.995979 2.787109,1.115235 0.347929,0.982703 0.914639,1.679098 1.519532,2.111328 0.69407,0.495953 1.39099,0.661592 1.953125,0.644531 l 0.06836,-0.002 0.06836,-0.01367 c 2.206462,-0.436685 3.338377,0.1267 4.06836,0.931641 0.729981,0.804941 1.020753,2.006995 1.029297,2.783203 a 0.84302998,0.84302998 0 0 0 0.853515,0.832031 0.84302998,0.84302998 0 0 0 0.832031,-0.851562 c -0.01247,-1.132595 -0.356242,-2.674045 -1.464843,-3.896485 -1.09325,-1.205511 -2.96661,-1.946871 -5.53711,-1.46875 -0.149746,-0.0034 -0.530927,-0.07501 -0.890625,-0.332031 -0.378873,-0.270727 -0.774897,-0.727855 -1.007812,-1.617187 -0.29085,-1.110516 -0.07054,-1.808208 0.396484,-2.34961 0.350265,-0.40605 0.892729,-0.723499 1.550782,-0.902344 0.310918,1.076123 0.940623,2.239885 2.05664,3.275391 a 0.84302998,0.84302998 0 0 0 1.191406,-0.04492 0.84302998,0.84302998 0 0 0 -0.04492,-1.191406 c -1.031309,-0.95691 -1.490672,-1.975249 -1.675781,-2.876953 -0.118704,-0.578236 -0.112602,-1.11439 -0.0625,-1.517578 0.483481,-0.0878 0.986008,-0.279342 1.480469,-0.570313 a 0.84302998,0.84302998 0 0 0 0.298828,-1.154297 0.84302998,0.84302998 0 0 0 -1.154297,-0.298828 c -0.463583,0.2728 -0.821531,0.386651 -1.095703,0.410156 A 0.84302998,0.84302998 0 0 0 14.175781,13.65625 C 14.043214,13.62358 13.944865,13.564475 13.875,13.5 13.651431,13.293681 13.470451,12.749997 13.873,11.837891 a 0.84302998,0.84302998 0 0 0 -0.429688,-1.111328 0.84302998,0.84302998 0 0 0 -1.111328,0.429687 c -0.593966,1.345516 -0.499697,2.753192 0.398438,3.582031 0.171708,0.15846 0.364272,0.286673 0.572265,0.382813 -0.03222,0.262273 -0.04652,0.548054 -0.03906,0.851562 -1.001113,0.235352 -1.912064,0.713786 -2.56836,1.47461 -0.575977,0.667712 -0.9102099,1.552831 -0.9199214,2.550781 -0.5024635,-0.12652 -1.0141741,-0.340242 -1.4589844,-0.677735 -0.7375826,-0.559627 -1.3482871,-1.433847 -1.53125,-3.019531 -0.1688624,-1.463478 0.3046552,-2.449019 0.9453126,-3.134765 0.4677198,-0.500639 1.0681187,-0.80395 1.4765624,-0.933594 0.1768773,0.627036 0.4692197,1.240547 0.8789068,1.810547 a 0.84302998,0.84302998 0 0 0 1.177734,0.191406 0.84302998,0.84302998 0 0 0 0.191406,-1.175781 c -0.772768,-1.075158 -0.931569,-2.266966 -0.603516,-3.234375 0.328053,-0.9674098 1.113509,-1.7551553 2.533204,-2.0468752 2.068696,-0.4250737 3.007638,0.1624913 3.640625,0.890625 0.632985,0.7281342 0.847441,1.6281412 0.964843,2.0585942 a 0.84302998,0.84302998 0 0 0 1.035157,0.591796 0.84302998,0.84302998 0 0 0 0.591797,-1.035156 c -0.04071,-0.149428 -0.150168,-0.654429 -0.415971,-1.265625 0.598108,-0.7804874 2.006246,-1.452137 4.224609,-0.3203124 1.137111,0.5801474 1.493908,1.4544524 1.558594,2.3671874 0.03234,0.456368 -0.02949,0.911126 -0.134766,1.271485 -0.105281,0.360357 -0.281993,0.627696 -0.314453,0.660156 a 0.84302998,0.84302998 0 0 0 0,1.193359 0.84302998,0.84302998 0 0 0 1.19336,0 c 0.307271,-0.307271 0.504326,-0.677301 0.654296,-1.109375 0.428843,0.09211 0.941725,0.286907 1.320313,0.609375 0.520507,0.443351 0.895373,1.059117 0.724609,2.339844 -0.161336,1.210029 -0.86688,1.897906 -1.814453,2.380859 -0.565751,0.288349 -1.211625,0.466168 -1.791015,0.564453 -0.08388,-0.709348 -0.441432,-1.457201 -1.041016,-2.136718 a 0.84302998,0.84302998 0 0 0 -0.580078,-0.283203 0.84302998,0.84302998 0 0 0 -0.609375,0.208984 0.84302998,0.84302998 0 0 0 -0.07422,1.189453 c 0.571485,0.647674 0.687529,1.109642 0.644531,1.410156 a 0.84302998,0.84302998 0 0 0 -0.189453,0.375 c -0.227154,0.213056 -0.709181,0.382688 -1.529297,0.195313 a 0.84302998,0.84302998 0 0 0 -1.009765,0.632812 0.84302998,0.84302998 0 0 0 0.634765,1.009766 c 1.32182,0.302 2.582497,0.01842 3.275391,-0.841797 0.890585,-0.0647 1.989799,-0.289473 3.035156,-0.822266 1.274861,-0.649763 2.477337,-1.849561 2.71875,-3.660156 0.231987,-1.739898 -0.399086,-3.077671 -1.300781,-3.845703 -0.67565,-0.575495 -1.441382,-0.868726 -2.119141,-0.996094 0.0025,-0.152755 -5.5e-4,-0.307252 -0.01172,-0.464843 C 26.570206,9.593378 25.862446,8.0468715 24.193359,7.1953125 23.415823,6.7986077 22.665673,6.5729268 21.962891,6.4863281 20.43784,6.2984074 19.141105,6.7642562 18.283203,7.546875 17.49696,6.6519247 16.192167,5.9331797 14.384766,5.9707031 Z m 6.902343,3.8046879 a 0.84302998,0.84302998 0 0 0 -0.851562,0.646484 c -0.144422,0.606967 -0.346057,1.751141 -0.119141,2.902344 -0.995884,0.513522 -1.645607,1.264193 -1.980468,2.085937 -0.548727,1.34657 -0.369869,2.738476 -0.248047,3.636719 a 0.84302998,0.84302998 0 0 0 0.949218,0.722656 0.84302998,0.84302998 0 0 0 0.720703,-0.949219 c -0.115178,-0.849271 -0.195503,-1.953373 0.138672,-2.773437 0.334176,-0.820064 0.964895,-1.502645 2.923828,-1.695313 a 0.84302998,0.84302998 0 0 0 0.757813,-0.919921 0.84302998,0.84302998 0 0 0 -0.921875,-0.757813 c -0.243636,0.02396 -0.476083,0.05902 -0.699219,0.101563 -0.06382,-0.714535 0.03722,-1.618611 0.119141,-1.962891 a 0.84302998,0.84302998 0 0 0 -0.625,-1.015625 0.84302998,0.84302998 0 0 0 -0.164063,-0.02148 z" />
    <path
       id="path1"
       style="color:#000000;fill:#ffffff;stroke:#000000;stroke-linecap:round;stroke-opacity:0.40499;-inkscape-stroke:none;paint-order:stroke fill markers"
       d="m 14.384766,4.9707031 c -0.419646,0.00871 -0.866383,0.058964 -1.339844,0.15625 C 11.123553,5.5217574 9.7724474,6.7598156 9.2558594,8.2832031 9.119843,8.6843073 9.04256,9.1025055 9.0175781,9.5273438 8.1656717,9.6845338 7.2749396,10.186145 6.5,11.015625 c -0.9349405,1.000742 -1.6135736,2.54629 -1.390625,4.478516 0.226749,1.965165 1.0990901,3.342157 2.1875,4.167968 0.8922224,0.676959 1.892456,0.995979 2.787109,1.115235 0.347929,0.982703 0.914639,1.679098 1.519532,2.111328 0.69407,0.495953 1.39099,0.661592 1.953125,0.644531 l 0.06836,-0.002 0.06836,-0.01367 c 2.206462,-0.436685 3.338377,0.1267 4.06836,0.931641 0.729981,0.804941 1.020753,2.006995 1.029297,2.783203 a 0.84302998,0.84302998 0 0 0 0.853515,0.832031 0.84302998,0.84302998 0 0 0 0.832031,-0.851562 c -0.01247,-1.132595 -0.356242,-2.674045 -1.464843,-3.896485 -1.09325,-1.205511 -2.96661,-1.946871 -5.53711,-1.46875 -0.149746,-0.0034 -0.530927,-0.07501 -0.890625,-0.332031 -0.378873,-0.270727 -0.774897,-0.727855 -1.007812,-1.617187 -0.29085,-1.110516 -0.07054,-1.808208 0.396484,-2.34961 0.350265,-0.40605 0.892729,-0.723499 1.550782,-0.902344 0.310918,1.076123 0.940623,2.239885 2.05664,3.275391 a 0.84302998,0.84302998 0 0 0 1.191406,-0.04492 0.84302998,0.84302998 0 0 0 -0.04492,-1.191406 c -1.031309,-0.95691 -1.490672,-1.975249 -1.675781,-2.876953 -0.118704,-0.578236 -0.112602,-1.11439 -0.0625,-1.517578 0.483481,-0.0878 0.986008,-0.279342 1.480469,-0.570313 a 0.84302998,0.84302998 0 0 0 0.298828,-1.154297 0.84302998,0.84302998 0 0 0 -1.154297,-0.298828 c -0.463583,0.2728 -0.821531,0.386651 -1.095703,0.410156 A 0.84302998,0.84302998 0 0 0 14.175781,12.65625 C 14.043214,12.62358 13.944865,12.564475 13.875,12.5 13.651431,12.293681 13.470451,11.749997 13.873,10.837891 A 0.84302998,0.84302998 0 0 0 13.443359,9.7265625 0.84302998,0.84302998 0 0 0 12.332031,10.15625 c -0.593966,1.345516 -0.499697,2.753192 0.398438,3.582031 0.171708,0.15846 0.364272,0.286673 0.572265,0.382813 -0.03222,0.262273 -0.04652,0.548054 -0.03906,0.851562 -1.001113,0.235352 -1.912064,0.713786 -2.56836,1.47461 -0.575977,0.667712 -0.9102099,1.552831 -0.9199214,2.550781 -0.5024635,-0.12652 -1.0141741,-0.340242 -1.4589844,-0.677735 -0.7375826,-0.559627 -1.3482871,-1.433847 -1.53125,-3.019531 -0.1688624,-1.463478 0.3046552,-2.449019 0.9453126,-3.134765 0.4677198,-0.500639 1.0681187,-0.80395 1.4765624,-0.933594 0.1768773,0.627036 0.4692197,1.240547 0.8789068,1.810547 a 0.84302998,0.84302998 0 0 0 1.177734,0.191406 0.84302998,0.84302998 0 0 0 0.191406,-1.175781 c -0.77277,-1.075158 -0.931571,-2.2669658 -0.603518,-3.2343752 0.328053,-0.9674096 1.113509,-1.7551551 2.533204,-2.046875 2.068696,-0.4250737 3.007638,0.1624913 3.640625,0.890625 0.632985,0.7281337 0.847441,1.6281415 0.964843,2.0585937 a 0.84302998,0.84302998 0 0 0 1.035157,0.5917965 0.84302998,0.84302998 0 0 0 0.591797,-1.0351559 C 19.576432,9.1337749 19.466975,8.6287738 19.201172,8.0175781 19.79928,7.2370906 21.207418,6.565441 23.425781,7.6972656 c 1.137111,0.5801478 1.493908,1.454452 1.558594,2.3671874 0.03234,0.456368 -0.02949,0.911126 -0.134766,1.271485 -0.105281,0.360357 -0.281993,0.627696 -0.314453,0.660156 a 0.84302998,0.84302998 0 0 0 0,1.193359 0.84302998,0.84302998 0 0 0 1.19336,0 c 0.307271,-0.307271 0.504326,-0.677301 0.654296,-1.109375 0.428843,0.09211 0.941725,0.286907 1.320313,0.609375 0.520507,0.443351 0.895373,1.059117 0.724609,2.339844 -0.161336,1.210029 -0.86688,1.897906 -1.814453,2.380859 -0.565751,0.288349 -1.211625,0.466168 -1.791015,0.564453 -0.08388,-0.709348 -0.441432,-1.457201 -1.041016,-2.136718 a 0.84302998,0.84302998 0 0 0 -0.580078,-0.283203 0.84302998,0.84302998 0 0 0 -0.609375,0.208984 0.84302998,0.84302998 0 0 0 -0.07422,1.189453 c 0.571485,0.647674 0.687529,1.109642 0.644531,1.410156 a 0.84302998,0.84302998 0 0 0 -0.189453,0.375 c -0.227154,0.213056 -0.709181,0.382688 -1.529297,0.195313 a 0.84302998,0.84302998 0 0 0 -1.009765,0.632812 0.84302998,0.84302998 0 0 0 0.634765,1.009766 c 1.32182,0.302 2.582497,0.01842 3.275391,-0.841797 0.890585,-0.0647 1.989799,-0.289473 3.035156,-0.822266 1.274861,-0.649763 2.477337,-1.849561 2.71875,-3.660156 0.231987,-1.739898 -0.399086,-3.077671 -1.300781,-3.845703 -0.67565,-0.575495 -1.441382,-0.868726 -2.119141,-0.996094 0.0025,-0.152755 -5.5e-4,-0.307252 -0.01172,-0.4648435 -0.09581,-1.3519341 -0.80357,-2.898441 -2.472657,-3.75 C 23.415823,5.7986077 22.665673,5.5729268 21.962891,5.4863281 20.43784,5.2984074 19.141105,5.7642562 18.283203,6.546875 17.49696,5.6519247 16.192167,4.9331797 14.384766,4.9707031 Z m 6.902343,3.8046875 A 0.84302998,0.84302998 0 0 0 20.435547,9.421875 c -0.144422,0.606967 -0.346057,1.751141 -0.119141,2.902344 -0.995884,0.513522 -1.645607,1.264193 -1.980468,2.085937 -0.548727,1.34657 -0.369869,2.738476 -0.248047,3.636719 a 0.84302998,0.84302998 0 0 0 0.949218,0.722656 0.84302998,0.84302998 0 0 0 0.720703,-0.949219 c -0.115178,-0.849271 -0.195503,-1.953373 0.138672,-2.773437 0.334176,-0.820064 0.964895,-1.502645 2.923828,-1.695313 a 0.84302998,0.84302998 0 0 0 0.757813,-0.919921 0.84302998,0.84302998 0 0 0 -0.921875,-0.757813 c -0.243636,0.02396 -0.476083,0.05902 -0.699219,0.101563 -0.06382,-0.714535 0.03722,-1.618611 0.119141,-1.962891 a 0.84302998,0.84302998 0 0 0 -0.625,-1.015625 0.84302998,0.84302998 0 0 0 -0.164063,-0.021484 z" />
    <circle
       style="fill:#e4a2bc;fill-opacity:1;stroke:none;stroke-width:1.89;stroke-linecap:round;stroke-linejoin:round;stroke-dasharray:none;stroke-opacity:0.40499;paint-order:stroke fill markers"
       id="circle25"
       cx="2.9306793"
       cy="41.180679"
       r="2.4306796" />
  </g>
  <g
     id="g28">
    <g
       id="g27"
       transform="matrix(1.0244383,0,0,1.0244383,0.13040973,-1.3352161)">
      <path
         style="color:#000000;opacity:0.572711;mix-blend-mode:normal;fill:#000000;fill-opacity:1;stroke:#000000;stroke-linecap:round;stroke-linejoin:round;stroke-opacity:1;-inkscape-stroke:none;paint-order:stroke fill markers;filter:url(#filter27)"
         d="M 11.130859,8.1230469 C 10.302109,8.3889783 9.5339411,8.8994854 8.8828125,9.5703125 7.2717758,11.230088 6.8582298,13.212505 7.359375,15.056641 c 0.5011452,1.844136 1.7756783,3.572882 3.357422,5.27539 1.037035,1.116211 2.642172,2.210397 4.039062,3.31836 1.39689,1.107963 2.481767,2.295173 2.601563,2.867187 a 0.85008502,0.85008502 0 0 0 1.658203,0.03125 c 0.176743,-0.712297 1.219378,-1.854983 2.537109,-2.945312 1.317732,-1.090329 2.833678,-2.161566 3.851563,-3.275391 1.743641,-1.907988 3.066049,-3.606347 3.589844,-5.400391 0.523794,-1.794044 0.0696,-3.67672 -1.484375,-5.3457027 C 26.277559,8.2586322 24.474691,7.5542415 22.630859,8.1367187 21.05972,8.633051 19.568002,10.153823 18.158203,12.435547 16.715557,10.18744 15.271554,8.6667167 13.744141,8.1425781 12.848916,7.8353777 11.959609,7.8571154 11.130859,8.1230469 Z m 0.46875,1.5898437 c 0.502118,-0.1690433 1.020939,-0.1594534 1.59375,0.037109 1.145624,0.3931254 2.643067,1.7415234 4.230469,4.5664064 a 0.85008502,0.85008502 0 0 0 1.494141,-0.02148 c 1.492114,-2.849075 3.019013,-4.156255 4.224609,-4.5371099 1.205596,-0.3808551 2.210947,0.00492 3.121094,0.9824219 1.27338,1.367618 1.478671,2.405928 1.097656,3.710938 -0.381015,1.30501 -1.527734,2.886477 -3.212891,4.730469 -0.801608,0.877163 -2.299138,1.970975 -3.679687,3.113281 -0.899763,0.74449 -1.671481,1.539999 -2.283203,2.40039 C 17.558409,23.846477 16.754015,23.065135 15.8125,22.318359 14.354983,21.162309 12.759704,20.035532 11.960938,19.175781 10.467436,17.568252 9.3750826,15.991574 9,14.611328 8.6249174,13.231083 8.8247449,12.071364 10.103516,10.753906 10.611953,10.230088 11.097492,9.881934 11.599609,9.7128906 Z"
         id="path27" />
      <path
         style="color:#000000;fill:#ffffff;stroke:#000000;stroke-linecap:round;stroke-linejoin:round;stroke-opacity:0.443137;-inkscape-stroke:none;paint-order:stroke fill markers"
         d="M 11.130859,7.1230469 C 10.302109,7.3889783 9.5339411,7.8994854 8.8828125,8.5703125 7.2717758,10.230088 6.8582298,12.212505 7.359375,14.056641 c 0.5011452,1.844136 1.7756783,3.572882 3.357422,5.27539 1.037035,1.116211 2.642172,2.210397 4.039062,3.31836 1.39689,1.107963 2.481767,2.295173 2.601563,2.867187 a 0.85008502,0.85008502 0 0 0 1.658203,0.03125 c 0.176743,-0.712297 1.219378,-1.854983 2.537109,-2.945312 1.317732,-1.090329 2.833678,-2.161566 3.851563,-3.275391 1.743641,-1.907988 3.066049,-3.606347 3.589844,-5.400391 0.523794,-1.794044 0.0696,-3.67672 -1.484375,-5.3457027 C 26.277559,7.2586322 24.474691,6.5542415 22.630859,7.1367187 21.05972,7.633051 19.568002,9.1538225 18.158203,11.435547 16.715557,9.1874402 15.271554,7.6667167 13.744141,7.1425781 12.848916,6.8353777 11.959609,6.8571154 11.130859,7.1230469 Z m 0.46875,1.5898437 c 0.502118,-0.1690433 1.020939,-0.1594534 1.59375,0.037109 1.145624,0.3931256 2.643067,1.7415234 4.230469,4.5664064 a 0.85008502,0.85008502 0 0 0 1.494141,-0.02148 c 1.492114,-2.849075 3.019013,-4.1562548 4.224609,-4.5371099 1.205596,-0.3808551 2.210947,0.00492 3.121094,0.9824219 1.27338,1.367618 1.478671,2.405928 1.097656,3.710938 -0.381015,1.30501 -1.527734,2.886477 -3.212891,4.730469 -0.801608,0.877163 -2.299138,1.970975 -3.679687,3.113281 -0.899763,0.74449 -1.671481,1.539999 -2.283203,2.40039 C 17.558409,22.846477 16.754015,22.065135 15.8125,21.318359 14.354983,20.162309 12.759704,19.035532 11.960938,18.175781 10.467436,16.568252 9.3750826,14.991574 9,13.611328 8.6249174,12.231083 8.8247449,11.071364 10.103516,9.7539063 10.611953,9.2300876 11.097492,8.881934 11.599609,8.7128906 Z"
         id="path26" />
    </g>
    <circle
       style="fill:#f68278;fill-opacity:1;stroke:none;stroke-width:1.89;stroke-linecap:round;stroke-linejoin:round;stroke-dasharray:none;stroke-opacity:0.40499;paint-order:stroke fill markers"
       id="circle27"
       cx="2.9306793"
       cy="41.180679"
       r="2.4306796" />
  </g>
</svg>
