<svg version="1.1" id="Layer_1" xmlns="http://www.w3.org/2000/svg" xmlns:xlink="http://www.w3.org/1999/xlink" x="0px" y="0px"
	 width="100%" viewBox="0 0 512 512" enable-background="new 0 0 512 512" xml:space="preserve">
<path fill="#000000" opacity="1.000000" stroke="none" 
	d="
M390.135803,281.119629 
	C386.191589,281.094940 382.366974,280.021271 379.425171,283.838837 
	C382.047241,287.211029 385.303925,288.725708 389.369629,287.626221 
	C393.741730,286.443939 395.308289,288.300995 395.210022,292.350311 
	C395.064636,298.341614 394.938660,304.335480 394.635406,310.319702 
	C394.525970,312.478577 394.087128,314.671814 391.417084,315.392090 
	C389.748932,315.842072 388.092865,316.261475 386.752716,314.835175 
	C385.522003,313.525391 386.073364,312.019287 386.713470,310.633728 
	C387.340759,309.275940 388.119141,307.988312 388.755524,306.634308 
	C389.602386,304.832489 389.719543,303.115417 387.990784,301.671265 
	C386.628540,300.533203 385.103607,299.761383 383.416687,300.617432 
	C381.627228,301.525543 379.982330,302.736969 379.853088,305.054932 
	C379.834869,305.382019 379.952393,305.714691 379.955811,306.045288 
	C379.984039,308.791718 383.067688,311.861298 380.700012,314.004242 
	C378.709717,315.805573 375.250427,315.983795 372.519501,316.855652 
	C370.146820,314.840210 370.807343,312.326782 371.083344,310.161041 
	C373.226501,293.345123 371.854736,276.235687 375.793762,259.535919 
	C377.653107,251.652924 373.416351,247.484360 364.956848,247.290741 
	C357.176880,247.112656 355.424316,248.595566 353.763641,256.397858 
	C352.933533,260.298065 351.616730,264.107056 350.970428,268.031464 
	C349.548798,276.664124 344.187256,280.335510 336.515198,275.911835 
	C330.886658,272.666473 325.284302,271.888947 319.299072,271.070953 
	C311.966736,270.068848 308.228058,265.398315 308.388855,257.957397 
	C308.417542,256.629547 308.856537,255.287521 308.742188,253.983978 
	C308.416992,250.277802 313.051697,245.339127 306.061707,243.224976 
	C302.181763,242.051483 298.844543,239.512589 294.179413,240.817276 
	C289.706421,242.068268 284.912750,241.814468 280.581696,239.389404 
	C278.126740,238.014832 275.660156,237.833755 272.904541,238.747818 
	C268.309937,240.271866 263.678711,239.896576 259.342621,237.739075 
	C256.367462,236.258743 253.600433,235.972885 250.244843,236.750061 
	C245.558884,237.835358 240.834671,237.795242 236.314438,234.947388 
	C230.364044,231.198502 223.511292,234.301773 221.617554,241.140900 
	C220.019272,246.913025 218.471375,252.700302 216.774384,258.443390 
	C215.850555,261.569946 214.060745,263.403992 210.305542,263.382202 
	C204.888992,263.350708 200.043030,264.859772 198.908890,271.597931 
	C195.223038,269.240021 192.305084,267.015961 189.084778,265.391174 
	C183.226532,262.435455 179.962906,264.417786 180.445831,270.803619 
	C182.343430,295.896454 182.024368,321.066711 183.292114,346.178741 
	C183.523193,350.756073 185.209595,351.789062 189.319885,349.907440 
	C190.198151,349.505371 190.873444,348.583160 192.358917,349.013062 
	C194.679199,351.881287 194.624863,355.719940 194.742020,359.215729 
	C195.410645,379.166779 198.138229,399.018616 197.452621,419.043091 
	C197.302567,423.425537 196.451889,425.078186 191.738708,424.031982 
	C187.878418,423.175110 183.803543,423.186768 179.815338,423.033844 
	C176.332153,422.900299 174.817276,421.432678 174.706161,417.824799 
	C174.116821,398.686340 173.337357,379.553772 172.663620,360.417786 
	C171.661957,331.967346 171.411697,303.465179 169.413086,275.085632 
	C168.388885,260.542236 174.157364,248.132980 177.673096,234.950668 
	C178.707870,231.070724 178.070557,230.503235 174.313446,228.941681 
	C168.597885,226.566086 163.183121,226.912613 157.499115,227.308380 
	C154.259445,227.533966 151.212906,227.002792 148.479874,225.101181 
	C144.028015,222.003586 139.835403,224.842361 135.673874,225.900436 
	C130.453308,227.227753 116.972130,223.379425 114.115417,219.409393 
	C112.057549,216.549530 110.713791,213.363571 112.347282,210.080170 
	C113.858162,207.043243 117.151337,206.905243 120.213791,206.868408 
	C120.866623,206.860565 121.518433,206.767303 122.708221,206.668945 
	C120.788330,202.600082 122.723564,200.791656 126.409981,200.037994 
	C127.201485,199.876205 127.893555,199.277985 128.676132,199.012665 
	C130.550995,198.377060 132.456985,194.886703 134.373199,198.535767 
	C135.862061,201.370987 134.102966,203.774689 131.798950,205.349045 
	C130.235229,206.417587 128.238525,206.852493 126.244148,208.078583 
	C131.955688,209.011139 135.816788,212.508881 140.138107,215.851242 
	C145.857239,220.274780 153.748795,219.833954 160.788315,220.669540 
	C178.751373,222.801758 196.755676,224.670212 214.784607,226.139740 
	C232.014877,227.544159 249.155212,229.782776 266.406525,231.039291 
	C282.315155,232.198029 298.130341,234.600052 314.002747,236.304840 
	C340.773651,239.180161 367.568451,241.835480 394.330719,244.787277 
	C407.549561,246.245300 420.719635,248.148071 433.908234,249.876404 
	C436.000183,250.150558 438.268982,250.234695 439.424103,253.817886 
	C431.288055,252.309830 423.425629,255.242020 415.846130,252.248642 
	C410.839996,250.271545 406.391632,252.401062 401.759033,253.389709 
	C399.749939,253.818451 399.492920,255.611450 399.185822,257.264282 
	C397.999939,263.647034 396.875031,270.041718 395.622375,276.411255 
	C395.088043,279.128204 394.267639,281.764313 390.135803,281.119629 
z"/>
<path fill="#000000" opacity="1.000000" stroke="none" 
	d="
M324.711914,471.711456 
	C315.190979,472.157837 306.207458,473.676086 296.959564,472.393768 
	C291.675323,471.661041 286.715607,470.599884 282.473907,467.640961 
	C276.922607,463.768463 270.692963,462.212708 264.268585,461.270538 
	C253.868988,459.745331 243.424469,458.879791 233.062744,461.738159 
	C232.426102,461.913788 231.738007,462.067963 231.091019,462.016388 
	C219.968887,461.129944 209.685730,464.419708 199.628311,468.529907 
	C196.095291,469.973724 195.060776,468.701233 194.906128,465.473877 
	C194.569855,458.455872 190.701645,454.617462 183.998657,453.216461 
	C179.399826,452.255219 174.834610,451.765656 170.121887,452.471588 
	C163.157501,453.514832 156.143600,453.588226 149.277267,451.841125 
	C141.848373,449.950867 134.208237,449.881409 126.958801,445.845093 
	C121.538498,442.827118 114.001869,442.659149 107.378433,443.555267 
	C99.590172,444.608948 92.109840,444.821960 85.083603,440.811218 
	C78.115944,436.833923 70.230156,437.548462 62.740650,436.262024 
	C59.852734,435.765991 57.279301,434.875061 55.206764,432.740265 
	C51.541832,428.965240 52.485550,425.118073 57.529423,423.859772 
	C59.609673,423.340790 61.816994,423.352295 63.953133,423.032990 
	C81.467148,420.415161 98.842842,423.105865 116.165031,424.869202 
	C139.449402,427.239471 162.607239,430.767426 185.910492,433.116119 
	C196.619431,434.195435 207.367233,435.275269 218.010056,436.666351 
	C240.529800,439.609772 263.084320,442.189423 285.625244,444.930817 
	C309.012634,447.775177 332.456207,450.160919 355.806641,453.186340 
	C367.773285,454.736847 379.814728,456.086304 391.772491,457.953552 
	C401.639771,459.494324 411.295410,461.873474 421.105103,463.548584 
	C422.900269,463.855133 424.624878,464.368011 426.039276,465.743225 
	C430.795471,470.367584 429.819061,475.308502 423.283722,476.615356 
	C413.855316,478.500763 404.201477,478.848022 394.602814,479.533173 
	C384.644348,480.244080 374.697937,479.275452 364.755219,479.820221 
	C358.360046,480.170624 352.144745,479.993408 346.961853,475.317688 
	C343.314087,472.026825 338.491211,472.799500 334.119232,472.191681 
	C331.165375,471.781006 328.137146,471.905090 324.711914,471.711456 
z"/>
<path fill="#000000" opacity="1.000000" stroke="none" 
	d="
M245.906128,135.307556 
	C245.516785,132.535172 245.096558,130.238190 244.837051,127.923180 
	C243.445526,115.509857 237.265976,110.060112 224.562653,110.064377 
	C223.066116,110.064880 221.560089,110.003677 220.074585,109.831810 
	C212.205078,108.921326 210.283569,110.280960 208.941544,117.982788 
	C208.571167,120.108360 208.322556,122.270844 208.226532,124.425674 
	C207.909256,131.545685 211.814926,134.409775 218.539078,132.070557 
	C225.328354,129.708664 226.860062,130.704712 227.181686,137.828659 
	C227.421738,143.146088 227.730499,148.470047 227.663086,153.786728 
	C227.638123,155.755661 227.791992,158.531906 224.868958,158.964722 
	C222.159088,159.365967 220.724777,157.690140 219.727798,155.227875 
	C218.312943,151.733505 216.594391,150.072632 213.648819,154.394943 
	C211.707535,157.243607 204.410049,156.884125 201.868469,154.255737 
	C200.976837,153.333618 200.630997,151.825287 199.058105,151.653854 
	C197.563705,151.696030 197.237167,152.971161 196.671921,153.934128 
	C195.224182,156.400558 192.962189,156.613037 190.571594,156.016296 
	C188.154678,155.412994 187.940201,153.323410 187.809296,151.252991 
	C187.473343,145.939682 187.135437,140.626144 186.737442,135.317245 
	C186.239960,128.680878 181.660126,125.685181 176.186203,129.198639 
	C169.028290,133.792969 161.386475,138.083832 157.289627,146.261215 
	C156.141937,148.552048 154.683975,150.857407 151.988144,152.398453 
	C150.126617,149.997528 150.772659,147.990997 152.277481,146.017578 
	C155.103226,142.311874 157.959808,138.629532 160.768234,134.910782 
	C164.250977,130.299118 167.406677,125.744682 169.431229,120.008766 
	C171.772903,113.374428 177.502808,108.305580 181.915070,102.679298 
	C184.005783,100.013313 185.882462,97.445404 186.297943,93.914436 
	C186.481003,92.358719 187.310455,90.630829 188.377182,89.467979 
	C194.859375,82.401566 199.270966,73.481621 207.527374,68.008247 
	C208.158691,60.743912 213.852890,62.111404 218.525513,61.213516 
	C220.873047,60.762421 222.792847,58.866135 225.366547,60.916241 
	C226.396622,61.736759 227.099457,59.665749 228.447830,59.417763 
	C232.474960,68.583534 240.212891,59.711494 245.696365,62.891529 
	C247.116470,61.356567 247.100586,59.713924 246.082260,57.692074 
	C242.628296,58.245068 239.193863,58.174812 235.968277,56.556305 
	C234.278564,55.708469 232.561234,54.835495 233.085526,52.503098 
	C233.590546,50.256508 235.513840,50.143490 237.062347,50.719017 
	C240.861786,52.131130 243.946472,48.182396 248.097122,49.911404 
	C251.174988,51.193523 252.102310,52.512756 252.099991,55.520302 
	C252.082901,77.674751 253.576172,99.806595 253.115921,121.970238 
	C253.036407,125.798988 253.112030,129.634644 253.242615,133.462784 
	C253.330292,136.033295 254.585266,136.901154 257.230835,136.194443 
	C263.120056,134.621201 270.694702,139.674011 271.450623,146.071793 
	C272.092438,151.503662 271.969513,157.036087 272.011169,162.525330 
	C272.042328,166.625778 273.462860,168.243210 277.844727,167.254974 
	C283.451233,165.990540 285.155334,167.488556 285.305298,173.275299 
	C285.421722,177.768372 285.252289,182.270187 285.153656,186.766876 
	C285.111328,188.697479 284.551910,190.414841 282.502472,191.151031 
	C281.486115,191.516113 280.399719,191.423813 279.794006,190.505875 
	C278.711792,188.865860 279.716553,187.299026 280.307190,185.779312 
	C280.885559,184.291107 282.325684,182.813400 280.377045,181.362946 
	C278.657440,180.082932 276.639008,179.816238 274.676178,180.557709 
	C272.548248,181.361542 272.429413,183.183411 272.834229,185.153107 
	C273.338776,187.608017 273.446259,190.208939 270.197235,190.497101 
	C267.097321,190.772064 267.264709,187.875229 266.850006,185.870407 
	C265.283691,178.298950 265.872162,170.608170 265.700745,162.959427 
	C265.668091,161.501358 266.255035,159.991226 265.338013,158.513306 
	C263.438660,158.324905 261.902893,161.313309 259.933197,159.489853 
	C257.761627,157.479523 261.212128,155.604126 260.296082,153.165268 
	C257.074249,153.051712 253.757889,152.098679 254.592987,157.851425 
	C255.061615,161.079697 251.853394,160.952454 249.540710,161.142242 
	C246.710464,161.374481 245.700714,159.966309 245.750351,157.256271 
	C245.881424,150.096909 245.891312,142.935318 245.906128,135.307556 
z"/>
<path fill="#000000" opacity="1.000000" stroke="none" 
	d="
M89.880959,348.188751 
	C96.128845,352.846375 93.801865,357.378418 90.385727,361.963623 
	C88.860519,364.010803 89.263374,366.346252 89.329727,368.693665 
	C89.483597,374.137421 86.700302,376.900055 81.617653,376.370667 
	C80.909874,371.672638 86.787300,369.598450 86.453064,365.036072 
	C81.134460,364.983002 76.863853,369.460785 77.824783,374.364380 
	C78.427795,377.441559 77.627800,379.164948 74.579933,378.854584 
	C71.660141,378.557281 67.027557,381.433411 66.616226,375.281311 
	C64.995659,351.043518 63.362324,326.806580 61.701950,302.571472 
	C61.565907,300.585754 61.145893,298.621185 60.935730,296.638519 
	C60.539940,292.904694 59.262634,289.776764 55.254829,288.710663 
	C50.911617,287.555328 46.780567,287.306915 43.271049,291.078705 
	C36.567089,298.283661 30.427729,305.916412 24.996204,314.121124 
	C24.458879,314.932800 24.051527,315.893005 22.591953,316.207916 
	C20.393436,314.346039 20.565235,311.526184 20.373064,309.028717 
	C19.096725,292.441437 17.957190,275.843658 16.777916,259.248932 
	C16.636360,257.256989 16.801357,255.196075 16.340897,253.283508 
	C15.296711,248.946411 15.920470,245.702652 21.129183,244.924789 
	C20.770184,243.139908 20.110491,241.656235 20.273012,240.268860 
	C20.553064,237.878220 21.208950,235.349136 24.682947,237.006409 
	C28.497461,238.826126 31.939508,237.814697 34.799469,235.175690 
	C37.005478,233.140121 38.272835,233.577484 40.685783,235.180099 
	C48.928223,240.654495 49.757412,242.470596 57.336845,236.985779 
	C58.877884,235.870590 58.994415,236.031631 62.831203,238.128448 
	C64.738846,235.972229 65.526428,233.434036 65.695824,229.994965 
	C58.183517,233.485550 51.635864,233.589584 46.666996,225.651215 
	C42.348614,229.118179 37.796112,231.526367 32.041965,229.347900 
	C29.369131,228.335983 26.768990,227.612259 27.377914,224.085770 
	C27.948771,220.779770 30.405783,221.311111 32.837170,221.675613 
	C35.583160,222.087296 38.284447,221.351334 40.349998,219.628616 
	C42.813126,217.574326 44.429642,217.667175 46.592461,220.112259 
	C50.208309,224.199997 57.278629,224.990250 61.905151,221.963684 
	C63.655632,220.818573 65.114746,219.932907 66.534332,222.026001 
	C68.267494,224.581451 69.654099,220.814316 71.577156,222.072540 
	C72.931519,226.143005 72.547760,230.691452 72.829216,235.080887 
	C74.106812,255.005707 75.083221,274.950256 76.109268,294.890686 
	C76.887383,310.012543 77.624329,325.136841 78.275139,340.264557 
	C78.454552,344.434937 79.960495,346.702576 84.454536,345.513336 
	C86.916039,344.861969 88.710579,345.415039 89.880959,348.188751 
M37.332130,247.842941 
	C39.318329,247.832092 41.503723,248.827286 43.138901,246.945389 
	C42.833935,245.296265 42.020172,244.171646 40.712624,243.839188 
	C38.619278,243.306900 36.793556,244.418198 35.455383,245.803131 
	C34.400829,246.894547 35.731762,247.387360 37.332130,247.842941 
z"/>
<path fill="#000000" opacity="1.000000" stroke="none" 
	d="
M236.859818,331.994263 
	C236.798035,323.339630 236.724686,315.183960 236.685822,307.028137 
	C236.673447,304.428894 236.706253,301.788635 240.457275,301.971405 
	C243.737518,302.131226 246.260132,302.858185 246.216995,307.084656 
	C246.098114,318.734711 246.215225,330.387207 246.243088,342.038757 
	C246.264465,350.977600 252.511581,357.802094 261.471100,357.844910 
	C266.308929,357.867981 269.649109,359.840271 272.761597,363.115723 
	C279.550781,370.260468 283.439911,378.165192 283.273743,388.546204 
	C283.066650,401.484253 284.643585,414.439545 284.174744,427.427368 
	C283.935455,434.055878 283.306030,434.854431 276.839294,433.811798 
	C266.011963,432.066071 255.103180,431.164185 244.190598,430.352203 
	C240.046936,430.043884 238.893356,428.139252 238.845459,424.308289 
	C238.562546,401.680664 238.163834,379.054169 237.716446,356.429047 
	C237.558624,348.447906 237.153717,340.471649 236.859818,331.994263 
z"/>
<path fill="#000000" opacity="1.000000" stroke="none" 
	d="
M348.938171,402.430786 
	C350.259033,413.782288 349.988953,424.716461 349.470062,435.689178 
	C349.254639,440.244598 347.950714,442.053650 343.255798,441.319855 
	C338.830658,440.628204 334.329803,440.393219 329.854828,440.056122 
	C325.657043,439.739929 325.969910,436.676361 325.967407,433.835999 
	C325.952972,417.511932 325.883942,401.187286 325.998169,384.863983 
	C326.107697,369.213593 326.603546,353.564362 326.580231,337.915131 
	C326.562164,325.785492 325.434204,313.647888 327.738190,301.586334 
	C328.566101,297.252136 328.991455,292.834930 331.229095,288.536011 
	C333.590057,290.435211 333.044891,292.695679 333.047913,294.719299 
	C333.083496,318.706238 333.054352,342.693329 333.095551,366.680267 
	C333.108032,373.941864 333.183197,373.941772 340.274445,373.926056 
	C347.288239,373.910522 347.896484,374.486633 348.174927,381.544067 
	C348.444031,388.364563 348.689423,395.185944 348.938171,402.430786 
z"/>
<path fill="#000000" opacity="1.000000" stroke="none" 
	d="
M133.261475,403.975220 
	C133.326889,415.871216 133.326889,415.871185 121.940521,415.294067 
	C111.624123,414.771149 111.376015,414.795074 110.385216,404.510345 
	C109.316345,393.415070 108.640228,382.278442 112.658875,371.467712 
	C113.620422,368.881042 114.001915,366.078705 114.950859,362.121857 
	C109.247810,365.880768 104.459969,366.012421 100.249161,361.940521 
	C98.623894,360.368835 98.958969,358.327667 100.948799,354.683594 
	C105.581947,358.311127 109.529816,356.263275 112.802170,352.833191 
	C115.146004,352.870209 115.071861,355.001129 116.293625,355.775574 
	C117.936661,356.362579 117.831245,353.548767 119.638069,354.206787 
	C119.787148,354.506195 120.143669,354.912231 120.181702,355.346191 
	C120.588196,359.983551 121.038979,364.620453 121.279907,369.267700 
	C121.432800,372.216888 122.019394,374.361786 125.597351,374.729645 
	C127.639130,374.939545 130.301895,375.542664 128.505402,378.857819 
	C128.357864,379.130066 128.175156,379.642944 128.293335,379.762329 
	C135.069229,386.607300 132.508240,395.392059 133.261475,403.975220 
z"/>
<path fill="#000000" opacity="1.000000" stroke="none" 
	d="
M208.968597,189.343826 
	C210.263153,196.677673 210.089310,203.654648 210.057434,210.629822 
	C210.040482,214.339050 208.765137,216.416840 204.662277,215.260696 
	C200.475815,214.080978 196.130447,214.248978 191.869827,213.705750 
	C187.967133,213.208176 184.041000,213.245087 182.906235,207.787125 
	C182.407959,205.390549 179.461029,204.062271 177.124115,207.054367 
	C174.872543,209.937195 171.553223,209.634140 168.487793,209.940247 
	C167.061798,210.082657 165.875595,209.187531 165.596420,207.693893 
	C164.412247,201.358109 162.954681,195.067200 164.646912,188.534622 
	C165.904114,183.681427 168.391449,182.205627 172.393890,185.096161 
	C176.259781,187.888077 179.598267,188.568466 183.681839,185.642609 
	C186.027695,183.961792 188.770218,184.558716 191.149628,186.228195 
	C194.507339,188.584061 197.884109,189.330887 201.865875,187.385178 
	C204.249542,186.220383 207.081757,185.892654 208.968597,189.343826 
z"/>
<path fill="#000000" opacity="1.000000" stroke="none" 
	d="
M278.092102,106.072357 
	C276.328827,105.840500 275.019653,105.595963 273.699219,105.461212 
	C265.143250,104.588089 264.996796,104.607025 264.328217,95.833580 
	C263.899689,90.210846 263.968994,84.549690 263.834198,78.905304 
	C263.781891,76.716782 264.289124,74.580017 266.948761,74.773941 
	C281.111847,75.806572 295.247803,77.131905 309.218048,79.230003 
	C309.826996,82.746368 307.422241,83.423714 305.556915,84.162239 
	C299.790619,86.445259 297.077576,90.303307 297.078094,96.735703 
	C297.078735,104.970512 294.141815,107.322693 285.973419,106.851028 
	C283.489990,106.707626 281.018127,106.362938 278.092102,106.072357 
z"/>
<path fill="#000000" opacity="1.000000" stroke="none" 
	d="
M393.398926,431.200470 
	C393.344940,435.510315 393.257355,439.343231 393.262573,443.176025 
	C393.266663,446.189758 391.753418,447.494690 388.869293,447.101593 
	C383.433105,446.360657 378.072998,445.076447 372.524384,445.176605 
	C370.396271,445.215057 369.782043,443.574646 369.788422,441.730835 
	C369.817261,433.398865 369.816772,425.066071 369.953827,416.735626 
	C370.001434,413.841309 371.611908,412.640747 374.592285,413.065613 
	C379.202026,413.722717 383.827789,414.387207 388.469666,414.663269 
	C392.542755,414.905487 394.132477,416.923218 393.947479,420.746704 
	C393.786499,424.073273 393.587555,427.397980 393.398926,431.200470 
z"/>
<path fill="#000000" opacity="1.000000" stroke="none" 
	d="
M253.262802,192.591644 
	C255.513687,194.257858 257.427734,193.017395 259.343506,192.783585 
	C264.619171,192.139725 266.580475,193.445480 266.905121,198.718445 
	C267.252106,204.353500 267.120697,210.024277 267.027832,215.676651 
	C266.996124,217.607483 267.024994,220.046265 264.591248,220.634308 
	C262.063812,221.244965 260.681152,219.412567 259.670715,217.334915 
	C259.115540,216.193283 258.984558,214.661469 257.268127,214.481140 
	C256.954193,214.579758 256.482025,214.587906 256.360321,214.798553 
	C254.653961,217.750931 252.715805,221.007050 248.795853,219.709518 
	C245.203857,218.520554 246.971466,214.821793 246.843414,212.228073 
	C246.581116,206.915497 246.676041,201.584015 246.672302,196.260300 
	C246.668457,190.794098 247.597366,190.236130 253.262802,192.591644 
z"/>
<path fill="#000000" opacity="1.000000" stroke="none" 
	d="
M343.267120,92.705421 
	C342.771149,82.688446 344.087982,73.339035 347.048279,63.690128 
	C349.204102,66.009758 348.756836,68.179810 348.683197,70.268051 
	C348.583740,73.090080 348.382141,75.911537 348.379456,78.733383 
	C348.371796,86.733994 348.402863,86.734032 356.498810,86.895592 
	C362.900391,87.023338 365.139771,89.801926 364.124359,96.140709 
	C363.600281,99.412476 363.292358,102.719513 362.913849,106.013725 
	C362.658295,108.237648 361.364014,109.633865 359.388763,110.447632 
	C358.559113,110.789436 357.723846,110.586624 357.171906,109.827576 
	C355.829224,107.980957 356.827606,106.392555 357.749634,104.772743 
	C358.587799,103.300232 359.518158,101.604759 357.635101,100.377739 
	C355.614105,99.060844 353.217010,98.567978 351.026886,99.915657 
	C349.090363,101.107285 350.165131,102.763161 350.796173,104.321976 
	C351.619293,106.355225 353.556427,108.913757 349.790649,109.873764 
	C346.669037,110.669548 343.509277,110.319153 343.314667,106.032585 
	C343.119476,101.732147 343.291016,97.415062 343.267120,92.705421 
z"/>
<path fill="#000000" opacity="1.000000" stroke="none" 
	d="
M327.591370,287.399536 
	C326.071716,290.880127 323.976135,293.119598 320.259460,292.719482 
	C317.243713,292.394806 313.855072,291.603546 311.985809,294.459808 
	C309.955994,297.561279 312.819763,300.404419 313.829254,303.280518 
	C314.262054,304.513580 315.022858,305.652527 316.560669,306.037842 
	C319.156860,304.277985 320.452026,301.050079 323.472076,299.796692 
	C325.949432,303.514069 324.421112,307.303864 319.936859,307.860596 
	C315.501831,308.411316 310.992462,308.473175 306.513306,308.520355 
	C303.558838,308.551514 303.587677,306.097961 303.826263,304.171356 
	C304.601013,297.915649 305.520538,291.673981 306.561646,285.456635 
	C307.133698,282.040344 308.525055,278.755737 307.450134,274.023224 
	C313.575989,279.366638 317.182861,287.795349 326.247711,283.016724 
	C328.119598,284.047394 328.057312,285.496460 327.591370,287.399536 
z"/>
<path fill="#000000" opacity="1.000000" stroke="none" 
	d="
M403.970764,137.369125 
	C404.597626,133.994720 404.943756,131.010086 405.707306,128.136337 
	C407.041779,123.113754 411.679077,119.937897 416.361115,120.559280 
	C420.995483,121.174339 423.186829,124.260162 423.177277,130.421173 
	C423.170105,135.068756 423.495697,139.740265 422.478821,144.341919 
	C422.114502,145.990723 421.862396,147.808441 419.660248,147.841156 
	C417.975067,147.866211 417.014008,146.671021 416.311859,145.247543 
	C413.238434,139.016953 412.547974,138.922760 408.286652,144.216476 
	C407.504822,145.187698 406.647491,145.985092 405.357880,145.606079 
	C404.025116,145.214371 403.770294,143.981476 403.753510,142.787643 
	C403.730194,141.128937 403.830566,139.468506 403.970764,137.369125 
z"/>
<path fill="#000000" opacity="1.000000" stroke="none" 
	d="
M312.321625,223.555756 
	C310.139526,225.940735 307.329926,227.056488 305.002350,225.735550 
	C302.827942,224.501495 303.677399,221.419998 304.074036,219.206894 
	C305.054199,213.737534 304.707153,208.243149 304.789703,202.757416 
	C304.842743,199.231400 305.731781,196.922363 309.780884,199.019775 
	C311.948425,200.142563 313.919617,199.639557 316.050842,199.075912 
	C320.578583,197.878479 322.992859,200.326736 324.234192,204.281708 
	C325.796936,209.260590 324.146118,212.331924 320.184021,214.321945 
	C316.558563,216.142899 311.918823,217.592712 312.321625,223.555756 
z"/>
<path fill="#000000" opacity="1.000000" stroke="none" 
	d="
M324.363586,126.199814 
	C324.166748,129.449554 324.728607,132.337906 323.468750,134.995834 
	C322.742554,136.527985 321.733063,137.961182 319.817749,137.958328 
	C317.626160,137.955063 317.203827,136.244141 317.018463,134.525665 
	C316.820312,132.688583 316.226105,131.345047 314.077789,131.229614 
	C312.240509,131.130890 310.881317,131.708359 309.962860,133.379425 
	C309.053436,135.034042 308.436157,137.062332 305.615356,137.481689 
	C305.231964,129.465927 306.983154,122.069855 310.049042,115.236549 
	C311.581879,111.820152 315.839203,110.118713 319.897644,111.113037 
	C323.921814,112.098961 325.004578,115.473557 324.814514,119.294014 
	C324.707489,121.445717 324.520691,123.593468 324.363586,126.199814 
z"/>
<path fill="#000000" opacity="1.000000" stroke="none" 
	d="
M384.786194,163.757751 
	C385.250854,160.901169 385.545868,158.427734 386.082916,156.007980 
	C387.164948,151.132568 391.580902,147.708450 396.039581,148.140762 
	C400.650055,148.587753 403.282532,152.020096 403.048859,157.750000 
	C402.859924,162.382660 403.414917,167.043884 402.474579,171.652618 
	C401.977264,174.089966 401.329041,176.417038 398.190948,175.983170 
	C395.226990,175.573380 394.472504,173.429840 395.123413,170.812073 
	C395.789032,168.135254 394.600098,166.659592 392.274353,165.852264 
	C389.505585,164.891129 389.365753,167.087372 388.870331,168.823502 
	C388.520630,170.048874 387.875854,170.980286 386.416901,170.685654 
	C385.066467,170.412964 384.515320,169.308411 384.450623,168.116592 
	C384.379639,166.808289 384.620850,165.483032 384.786194,163.757751 
z"/>
<path fill="#000000" opacity="1.000000" stroke="none" 
	d="
M440.936890,264.445251 
	C440.111359,268.117889 439.291931,271.427826 438.341217,275.268219 
	C434.187622,272.600342 430.657715,268.610992 426.127594,272.778931 
	C422.918121,275.731750 424.071167,279.614014 425.798767,282.461914 
	C428.967682,287.685791 433.076904,283.074921 436.650909,282.309845 
	C438.585602,287.330719 437.340729,289.511414 432.792114,289.218658 
	C428.996063,288.974304 425.219116,288.376251 421.446625,287.843353 
	C418.942444,287.489594 417.550903,286.111023 417.921387,283.406067 
	C418.933990,276.012543 419.874420,268.607727 421.023071,261.235382 
	C421.255920,259.740509 421.278320,257.495605 423.372650,257.278839 
	C425.478149,257.060944 425.901855,259.096619 426.378113,260.660522 
	C427.331451,263.791046 428.885559,265.933502 432.621796,265.922638 
	C436.907074,265.910187 437.422363,265.756897 439.738770,261.557739 
	C440.895111,262.041168 440.783905,263.126923 440.936890,264.445251 
z"/>
<path fill="#000000" opacity="1.000000" stroke="none" 
	d="
M410.732361,208.961426 
	C415.606995,207.730209 417.326660,209.715042 416.965790,214.091431 
	C416.615448,218.339981 415.833527,222.353867 411.756073,224.771042 
	C409.691376,225.995056 408.988770,227.862610 408.816315,230.192917 
	C408.580872,233.374374 406.507843,235.120880 403.468079,234.895157 
	C399.943573,234.633469 400.752350,231.604553 400.929230,229.455948 
	C401.242432,225.651886 402.225647,221.889404 402.370148,218.088303 
	C402.575104,212.697327 404.470184,209.222992 410.732361,208.961426 
z"/>
<path fill="#000000" opacity="1.000000" stroke="none" 
	d="
M382.714783,195.331879 
	C382.343811,197.218933 382.216980,198.742630 381.693726,200.115234 
	C380.829132,202.383377 378.868774,202.934067 376.784210,202.205505 
	C374.392273,201.369507 374.654205,199.308792 375.647827,197.670151 
	C378.833130,192.417023 376.770233,190.437469 371.367188,189.481491 
	C367.405243,188.780472 366.396271,185.889740 368.294006,182.315018 
	C370.150513,178.817932 372.710449,175.779266 377.028473,176.134705 
	C381.295776,176.485992 383.246796,179.883957 383.103271,185.456177 
	C383.022217,188.605011 382.890015,191.752533 382.714783,195.331879 
z"/>
<path fill="#000000" opacity="1.000000" stroke="none" 
	d="
M291.098938,152.912964 
	C289.804657,146.158585 296.259094,139.722794 302.552460,141.101395 
	C304.569153,141.543152 305.124634,143.189743 305.124878,144.904526 
	C305.125732,150.398514 305.132263,155.901306 304.819946,161.382675 
	C304.672150,163.976868 303.634644,166.535675 300.215637,165.970764 
	C296.614319,165.375778 297.234772,162.909393 297.748596,160.214554 
	C298.681427,155.322083 294.772858,154.325531 291.098938,152.912964 
z"/>
<path fill="#000000" opacity="1.000000" stroke="none" 
	d="
M208.586060,296.933655 
	C205.355255,295.384766 206.252533,293.335114 207.464630,291.401520 
	C208.433167,289.856537 209.658600,288.472931 210.765549,287.014313 
	C212.825058,284.300415 212.601685,282.173492 209.236115,280.748596 
	C206.922760,279.769165 204.540741,278.739685 203.552338,276.184143 
	C202.583099,273.678009 202.837982,271.791504 206.297012,272.263062 
	C207.446579,272.419739 208.601791,272.686493 209.750931,272.669281 
	C215.699341,272.580048 216.514511,273.213715 215.236267,279.013794 
	C214.404236,282.789215 215.402878,286.260315 215.646255,289.869171 
	C216.029495,295.551941 214.740829,296.899872 208.586060,296.933655 
z"/>
<path fill="#000000" opacity="1.000000" stroke="none" 
	d="
M357.938934,220.781769 
	C358.313141,217.330048 355.846619,216.662598 353.756073,215.791946 
	C351.723145,214.945312 350.405884,213.694214 350.423645,211.385742 
	C350.440399,209.210938 352.006134,208.711273 353.730835,208.419434 
	C355.637909,208.096710 355.867004,206.018860 357.110107,205.124283 
	C362.500580,205.710922 363.734955,208.960999 363.132843,213.736725 
	C362.720673,217.005936 362.919312,220.348907 362.583313,223.632156 
	C362.369476,225.722107 362.046814,228.492126 358.997894,227.835571 
	C356.008667,227.191910 356.868713,224.641647 357.382874,222.539230 
	C357.500458,222.058487 357.687347,221.594696 357.938934,220.781769 
z"/>
<path fill="#000000" opacity="1.000000" stroke="none" 
	d="
M438.315613,462.697815 
	C436.887726,461.863922 436.315308,460.766754 436.365143,459.603088 
	C436.679749,452.259674 437.495270,444.999268 440.702362,438.000793 
	C443.681396,444.501465 446.414703,451.041901 445.524780,458.193481 
	C445.124695,461.408905 441.939117,462.706573 438.315613,462.697815 
z"/>
<path fill="#000000" opacity="1.000000" stroke="none" 
	d="
M225.759750,47.465778 
	C227.573456,48.085831 229.197021,48.552734 230.485992,49.483170 
	C233.061447,51.342216 231.556839,54.485535 230.073746,54.591763 
	C225.834244,54.895443 221.562759,57.377495 217.218719,54.993698 
	C215.873032,54.255241 214.444351,53.644192 214.592834,51.827114 
	C214.743698,49.980659 216.226852,49.487022 217.748795,49.256203 
	C220.349716,48.861752 223.021286,48.810104 225.759750,47.465778 
z"/>
<path fill="#000000" opacity="1.000000" stroke="none" 
	d="
M171.886734,241.112549 
	C167.823944,243.733871 164.091782,243.964188 160.517822,241.057968 
	C159.171738,239.963379 158.298782,238.457184 159.082993,236.663834 
	C159.807190,235.007767 161.337387,235.647430 162.591400,235.798065 
	C164.616196,236.041260 166.532486,235.823868 168.444717,235.067444 
	C170.396393,234.295395 172.718781,232.856796 174.251984,235.325363 
	C175.696075,237.650436 173.563049,239.264297 171.886734,241.112549 
z"/>
<path fill="#000000" opacity="1.000000" stroke="none" 
	d="
M251.474121,244.705353 
	C254.218170,244.892883 256.488922,244.712189 258.654053,243.638962 
	C259.750336,243.095551 260.944183,243.051544 261.796936,244.173279 
	C262.589417,245.215759 262.371490,246.343597 261.915039,247.470642 
	C259.915771,252.407181 251.304291,253.586670 247.985901,249.368439 
	C247.123169,248.271774 246.602585,247.019241 247.171402,245.673569 
	C247.990646,243.735443 249.669388,244.624084 251.474121,244.705353 
z"/>
<path fill="#000000" opacity="1.000000" stroke="none" 
	d="
M272.138245,73.233429 
	C270.148895,72.126747 268.495728,71.062828 269.301971,68.842552 
	C270.050568,66.781036 271.849670,67.180626 273.520203,67.484665 
	C275.591339,67.861603 277.408813,66.925034 279.240265,66.222206 
	C280.631531,65.688301 281.966034,64.727051 283.182129,66.428909 
	C284.409027,68.145889 284.285248,69.927010 282.943878,71.435837 
	C280.008850,74.737251 276.371735,74.791100 272.138245,73.233429 
z"/>
<path fill="#000000" opacity="1.000000" stroke="none" 
	d="
M365.961426,128.614868 
	C364.914032,131.202423 365.519714,134.002808 363.519684,135.683090 
	C362.435425,135.557678 362.066101,134.968765 362.064148,134.305756 
	C362.048096,128.720398 362.623993,123.145409 362.068909,117.542114 
	C361.901642,115.853638 362.205048,113.536102 364.902191,113.906288 
	C367.063812,114.202980 367.900848,115.965355 367.665100,117.953682 
	C367.257965,121.386742 366.603546,124.790466 365.961426,128.614868 
z"/>
<path fill="#000000" opacity="1.000000" stroke="none" 
	d="
M230.030304,249.261429 
	C228.123444,248.489944 226.454025,247.752396 226.753021,245.718384 
	C227.016800,243.923874 228.810257,243.674393 230.206039,243.422882 
	C233.309479,242.863602 235.953247,241.263611 238.780807,239.694214 
	C240.941040,242.091995 240.495895,244.500107 239.080460,246.592484 
	C237.003876,249.662186 233.927902,250.452026 230.030304,249.261429 
z"/>
<path fill="#000000" opacity="1.000000" stroke="none" 
	d="
M276.514771,60.564796 
	C274.411072,59.438335 272.366180,58.436455 273.056061,56.014008 
	C273.772705,53.497654 276.090820,54.799637 277.729340,54.686073 
	C279.388672,54.571064 281.009979,54.441467 282.514526,53.684933 
	C283.954895,52.960655 285.311798,52.614353 286.353912,54.311268 
	C287.252960,55.775166 286.934509,57.160942 286.038879,58.463108 
	C283.658264,61.924358 280.433868,62.061527 276.514771,60.564796 
z"/>
<path fill="#000000" opacity="1.000000" stroke="none" 
	d="
M304.170563,61.325333 
	C300.390594,64.541115 296.972534,62.735100 293.717468,61.190125 
	C291.617920,60.193592 291.233887,58.285675 292.588837,55.933792 
	C296.056610,56.254616 299.539948,55.900097 303.056763,55.495773 
	C307.482239,54.986984 305.473022,58.709049 304.170563,61.325333 
z"/>
<path fill="#000000" opacity="1.000000" stroke="none" 
	d="
M277.131165,247.576294 
	C279.003693,246.853867 280.496460,246.213150 282.078125,245.534256 
	C284.333801,247.376175 283.695343,249.443527 282.594421,251.294327 
	C281.070068,253.856903 278.433746,254.420639 275.700562,254.166763 
	C273.375671,253.950836 271.065308,253.290482 269.973907,250.919418 
	C269.187012,249.209869 269.859192,248.014664 271.831116,247.860168 
	C273.466461,247.732056 275.110962,247.720963 277.131165,247.576294 
z"/>
<path fill="#000000" opacity="1.000000" stroke="none" 
	d="
M152.772873,234.668091 
	C150.895538,239.022278 147.689377,240.736832 143.470306,240.385696 
	C141.594162,240.229568 139.822662,239.195129 139.667892,237.060043 
	C139.522614,235.055984 141.481873,235.044052 142.808914,234.482452 
	C144.793991,233.642365 146.798203,232.824615 148.703720,231.824783 
	C151.551147,230.330704 152.736420,231.358322 152.772873,234.668091 
z"/>
<path fill="#000000" opacity="1.000000" stroke="none" 
	d="
M297.692017,75.742279 
	C294.830078,75.555748 292.282654,75.521599 290.270721,73.752640 
	C289.216461,72.825745 288.543732,71.666924 289.188110,70.222710 
	C289.790802,68.871948 291.027466,68.848198 292.167877,69.226463 
	C294.218323,69.906563 296.081512,69.338028 298.001984,68.732918 
	C299.657898,68.211159 301.607452,66.916786 302.744263,69.375069 
	C303.769958,71.593040 302.349426,73.215599 300.779297,74.517632 
	C300.053070,75.119835 298.989624,75.315338 297.692017,75.742279 
z"/>
<path fill="#000000" opacity="1.000000" stroke="none" 
	d="
M317.691376,58.460785 
	C318.389618,58.316422 318.707642,58.196987 319.035278,58.157177 
	C320.868744,57.934441 322.778595,56.006275 324.509308,58.225796 
	C325.420288,59.394066 325.269867,60.774891 324.444855,61.961952 
	C323.123169,63.863647 321.299744,64.912903 318.923645,64.684196 
	C318.104431,64.605354 317.282501,64.374016 316.503052,64.096565 
	C314.238434,63.290451 310.883331,63.052364 311.738647,59.600716 
	C312.550446,56.324699 315.473877,59.190865 317.691376,58.460785 
z"/>
<path fill="#000000" opacity="1.000000" stroke="none" 
	d="
M157.257996,189.114929 
	C155.399811,194.231125 151.765228,196.231720 148.268921,194.418976 
	C146.909805,193.714325 145.183105,192.548950 145.803940,191.113007 
	C147.309952,187.629745 151.410904,187.594589 154.268692,185.892807 
	C156.148254,184.773529 156.943039,186.995865 157.257996,189.114929 
z"/>
<path fill="#000000" opacity="1.000000" stroke="none" 
	d="
M138.521393,187.736053 
	C135.387772,193.168808 131.236343,194.647110 128.094269,191.684311 
	C126.084717,189.789444 125.786362,188.023972 128.871582,186.854752 
	C130.724411,186.152573 132.651489,185.569992 134.378250,184.627747 
	C137.693207,182.818832 138.560608,184.390060 138.521393,187.736053 
z"/>
<path fill="#000000" opacity="1.000000" stroke="none" 
	d="
M310.664734,70.952484 
	C313.493896,72.107712 315.858643,71.074089 318.243134,70.549393 
	C319.511108,70.270378 320.857849,69.559700 321.708160,71.179527 
	C322.390869,72.479988 321.992554,73.751289 321.260895,74.916351 
	C319.851624,77.160416 317.663055,77.631569 315.236786,77.451653 
	C312.868805,77.276047 310.565704,76.784721 309.361084,74.462387 
	C308.682220,73.153679 308.132416,71.586510 310.664734,70.952484 
z"/>
<path fill="#000000" opacity="1.000000" stroke="none" 
	d="
M19.512207,400.262268 
	C18.067575,394.501648 23.478945,393.560547 25.429167,389.737640 
	C28.510025,393.446350 28.464525,396.823090 26.350277,399.882416 
	C24.718367,402.243835 22.148840,402.267517 19.512207,400.262268 
z"/>
<path fill="#000000" opacity="1.000000" stroke="none" 
	d="
M335.789062,65.596954 
	C333.723206,65.189156 332.148621,64.672432 331.478668,62.915619 
	C330.863403,61.302170 331.209137,59.272011 333.109375,59.941139 
	C336.751495,61.223621 339.816223,59.616226 342.978333,58.804176 
	C345.054565,60.977036 344.430145,63.078308 343.057129,64.759979 
	C341.203522,67.030350 338.608002,66.301369 335.789062,65.596954 
z"/>
<path fill="#000000" opacity="1.000000" stroke="none" 
	d="
M148.738388,199.869751 
	C151.194778,197.671448 152.592056,198.770309 153.537827,200.946136 
	C154.800400,203.850769 153.086990,205.694199 150.957199,207.191162 
	C149.021591,208.551620 146.813614,208.799316 145.017532,207.103104 
	C143.117828,205.309036 144.683990,203.827621 145.964417,202.499283 
	C146.767578,201.666031 147.647369,200.906647 148.738388,199.869751 
z"/>
<path fill="#000000" opacity="1.000000" stroke="none" 
	d="
M304.883942,251.369064 
	C302.426758,257.352692 297.010559,257.906647 292.073730,252.172211 
	C296.690521,251.733475 300.217682,248.097961 304.883942,251.369064 
z"/>
<path fill="#000000" opacity="1.000000" stroke="none" 
	d="
M371.831238,259.677094 
	C371.051270,261.691406 369.878448,262.857361 368.127777,263.054382 
	C365.670166,263.330994 362.354950,263.594543 361.890289,260.743469 
	C361.301849,257.132843 365.307404,257.627350 367.491516,256.721466 
	C369.839203,255.747757 372.205841,255.430786 371.831238,259.677094 
z"/>
<path fill="#000000" opacity="1.000000" stroke="none" 
	d="
M451.707153,100.027527 
	C453.774872,101.660065 455.548218,103.073997 457.365051,104.522575 
	C453.991760,107.573723 450.319122,107.344719 448.031067,104.220978 
	C447.104950,102.956642 446.495483,101.513443 447.499969,100.118881 
	C448.563354,98.642509 450.019257,98.829765 451.707153,100.027527 
z"/>
<path fill="#000000" opacity="1.000000" stroke="none" 
	d="
M109.091324,369.437134 
	C111.581001,370.976166 110.826645,372.945740 110.113853,374.788208 
	C109.333435,376.805450 108.347534,378.775421 105.963181,379.353699 
	C104.922279,379.606201 103.864769,379.356995 103.481377,378.273712 
	C102.690407,376.038788 104.376862,374.575439 105.408257,372.947937 
	C106.282349,371.568634 107.016685,370.021027 109.091324,369.437134 
z"/>
<path fill="#000000" opacity="1.000000" stroke="none" 
	d="
M163.258484,253.222107 
	C164.944366,252.063324 165.941818,250.188339 168.231537,250.912064 
	C169.532120,253.398758 168.270950,255.353561 166.612839,256.939423 
	C165.214417,258.276917 163.123001,259.746643 161.405045,258.134979 
	C159.208145,256.074036 161.854797,254.835526 163.258484,253.222107 
z"/>
<path fill="#000000" opacity="1.000000" stroke="none" 
	d="
M377.234131,69.081085 
	C375.008209,68.779778 373.178741,68.517715 372.537933,66.013298 
	C374.868286,63.876194 378.032990,64.781982 380.742188,64.075943 
	C381.546143,63.866409 382.326813,64.438187 382.612000,65.347206 
	C382.941711,66.398003 382.632660,67.295425 381.844025,68.021255 
	C380.642975,69.126671 379.133636,69.092674 377.234131,69.081085 
z"/>
<path fill="#000000" opacity="1.000000" stroke="none" 
	d="
M23.233940,377.955627 
	C23.781345,377.906128 23.952429,377.895142 24.112101,377.932709 
	C26.914595,378.591949 27.172865,380.675323 26.776009,382.966736 
	C26.554457,384.246033 26.202457,385.814911 24.465048,385.712463 
	C22.663588,385.606201 21.400915,384.341522 20.722471,382.771942 
	C19.759470,380.543976 20.602886,378.913513 23.233940,377.955627 
z"/>
<path fill="#000000" opacity="1.000000" stroke="none" 
	d="
M426.051208,276.102234 
	C427.931152,271.854736 430.547302,272.576691 433.241516,274.640472 
	C434.653992,275.722412 434.947784,277.460938 433.397919,278.360657 
	C430.559021,280.008698 427.749725,280.026581 426.051208,276.102234 
z"/>
<path fill="#000000" opacity="1.000000" stroke="none" 
	d="
M431.341614,256.961121 
	C433.680328,256.980408 435.304718,257.601135 435.466949,259.863617 
	C435.573944,261.355530 434.604218,262.349579 433.226166,262.666595 
	C431.400116,263.086639 429.971130,262.126190 429.160980,260.628632 
	C428.155029,258.769226 429.044281,257.542450 431.341614,256.961121 
z"/>
<path fill="#000000" opacity="1.000000" stroke="none" 
	d="
M449.055298,219.141861 
	C450.332428,220.186676 452.347534,220.490433 451.668793,222.445419 
	C451.259460,223.624313 449.999084,223.992905 448.782867,223.703125 
	C447.377686,223.368317 446.517395,222.344269 446.375366,220.938217 
	C446.200928,219.211639 447.087585,218.541168 449.055298,219.141861 
z"/>
<path fill="#000000" opacity="1.000000" stroke="none" 
	d="
M146.569611,252.051178 
	C145.574860,254.122131 144.261780,255.067551 142.190735,254.664612 
	C141.048843,252.302551 142.404068,251.058777 144.004089,250.172180 
	C145.479416,249.354706 146.529602,249.926376 146.569611,252.051178 
z"/>
</svg>